# xmcd
#
# Track frame offsets: 
#        150
#        18344
#        36896
#        60248
#        82548
#        102065
#        123780
#        147004
#        164589
#        186717
#        211750
#        239541
#        258272
#        278144
#        303112
#        325598
#
# Disc length: 4556 seconds
#
# Revision: 1
# Processed by: cddbd v1.5.2PL0 Copyright (c) Steve Scherf et al.
# Submitted via: ExactAudioCopyFreeDBPlugin 1.0
#
DISCID=c811ca10
DTITLE=柳ジョージ - プレミアム・ベスト 柳ジョージ
DYEAR=2009
DGENRE=Blues
TTITLE0=「祭ばやしが聞こえる」のテーマ 
TTITLE1=微笑の法則　スマイル・オン・ミー
TTITLE2=青い瞳のステラ、１９６２年夏...
TTITLE3=さらばミシシッピー
TTITLE4=酔って候
TTITLE5=雨に泣いてる
TTITLE6=星空の南十字星
TTITLE7=ＲＵＮＡＷＡＹ〔悲しき街角〕
TTITLE8=ビッグ･カントリー 漂いゆく遥かなる郷
TTITLE9=真夜中のテレフォン・コール
TTITLE10=コイン ランドリィ ブルース
TTITLE11=For Your Love
TTITLE12=フーチー・クーチー・マン
TTITLE13=明日への風
TTITLE14=Long Time Comin'
TTITLE15=愛しき日々
EXTD=
EXTT0=
EXTT1=
EXTT2=
EXTT3=
EXTT4=
EXTT5=
EXTT6=
EXTT7=
EXTT8=
EXTT9=
EXTT10=
EXTT11=
EXTT12=
EXTT13=
EXTT14=
EXTT15=
PLAYORDER=
